<?xml version="1.0" standalone="no"?>
<!DOCTYPE svg PUBLIC "-//W3C//DTD SVG 20010904//EN"
 "http://www.w3.org/TR/2001/REC-SVG-20010904/DTD/svg10.dtd">
<svg version="1.0" xmlns="http://www.w3.org/2000/svg"
 width="760.000000pt" height="680.000000pt" viewBox="0 0 760.000000 680.000000"
 preserveAspectRatio="xMidYMid meet">

<g transform="translate(0.000000,680.000000) scale(0.100000,-0.100000)"
fill="#000000" stroke="none">
<path d="M290 6740 l0 -60 -145 0 -145 0 0 -185 0 -185 143 0 143 0 0 -177 -1
-178 -142 -3 -143 -3 0 -364 0 -365 145 0 145 0 0 365 0 365 180 0 180 0 0
-360 0 -360 -175 0 c-157 0 -175 -2 -184 -18 -5 -10 -8 -91 -6 -185 l3 -167
-144 0 -144 0 0 -185 0 -185 143 0 142 0 -1 -177 -1 -178 -142 -3 -141 -3 0
-179 c0 -99 3 -180 8 -180 4 0 67 -2 141 -3 l134 -2 1 -183 1 -182 -142 0
-143 0 0 -180 0 -180 140 0 c127 0 140 -2 140 -17 1 -10 3 -91 6 -180 l6 -163
-146 0 -146 0 0 -190 0 -190 140 0 140 0 0 -117 c0 -65 3 -227 7 -360 l6 -243
-146 0 -147 0 0 -180 0 -180 140 0 140 0 0 -175 c0 -96 0 -178 0 -182 0 -5
-62 -9 -137 -10 l-138 -2 -3 -180 -2 -181 145 0 145 0 0 180 0 180 180 0 180
0 0 -180 0 -180 -182 -2 -183 -3 -2 -160 c0 -88 -2 -168 -2 -177 -1 -16 -15
-18 -141 -18 l-140 0 0 -65 0 -65 145 0 145 0 0 65 0 65 83 -4 c45 -3 126 -5
180 -5 l97 -1 0 -60 0 -60 185 0 185 0 0 60 0 60 38 1 c20 0 100 1 177 1 l140
0 3 -61 3 -61 184 0 185 0 0 63 0 62 178 -1 177 -1 3 -61 3 -62 183 0 183 0
-3 33 c-1 17 0 46 2 62 l5 30 175 0 174 0 0 -62 0 -63 185 0 185 0 0 65 0 66
93 -1 c50 -1 131 -4 180 -7 l87 -5 0 -59 0 -59 185 0 185 0 0 59 0 59 38 4
c20 3 101 6 180 7 l142 1 0 -65 0 -65 185 0 185 0 0 60 0 60 43 1 c80 3 102 3
210 1 l107 -2 0 -60 0 -60 180 0 c164 0 180 2 181 18 0 9 1 37 2 62 l2 45 139
0 c163 1 221 -5 222 -22 1 -7 2 -33 3 -58 l1 -45 180 0 c164 0 180 2 181 18 1
9 2 22 4 27 1 6 3 26 3 45 l2 35 178 -1 177 -1 3 -61 3 -62 179 0 179 0 3 63
3 62 178 1 177 1 0 -64 0 -63 185 0 185 0 0 65 0 65 -180 0 -180 0 0 180 0
180 180 0 180 0 2 -182 c2 -134 6 -182 16 -186 9 -3 12 38 12 182 0 159 -2
186 -15 186 -13 0 -15 27 -15 180 0 153 2 180 15 180 13 0 15 27 15 185 0 158
-2 185 -15 185 -13 0 -15 27 -15 180 0 153 2 180 15 180 13 0 15 27 15 185 0
158 -2 185 -15 185 -13 0 -15 27 -15 180 0 153 2 180 15 180 13 0 15 27 15
185 0 160 -2 184 -15 179 -13 -5 -15 -35 -15 -185 l0 -179 -180 0 -180 0 0
180 0 180 180 0 180 0 0 185 c0 158 2 185 15 185 13 0 15 27 15 180 0 153 -2
180 -15 180 -13 0 -15 27 -15 185 0 158 2 185 15 185 13 0 15 27 15 180 0 152
-2 180 -15 180 -12 0 -15 29 -17 183 l-3 182 -85 2 c-47 1 -127 2 -177 2 l-93
1 0 180 0 180 180 0 180 0 0 -185 c0 -158 2 -185 15 -185 13 0 15 27 15 185 0
158 -2 185 -15 185 -13 0 -15 27 -15 180 0 153 2 180 15 180 13 0 15 27 15
185 0 158 -2 185 -15 185 -13 0 -15 27 -15 180 0 153 2 180 15 180 13 0 15 27
15 185 0 158 -2 185 -15 185 -13 0 -15 27 -15 180 0 153 2 180 15 180 12 0 15
13 15 60 0 47 -3 60 -15 60 -12 0 -15 -13 -15 -60 l0 -60 -180 0 -180 0 0 60
0 60 -185 0 -185 0 0 -60 0 -60 -180 0 -180 0 0 60 0 60 -185 0 -185 0 0 -60
0 -60 -180 0 -180 0 0 60 0 60 -185 0 -185 0 0 -60 0 -60 -180 0 -180 0 0 60
0 60 -185 0 -185 0 0 -60 0 -60 -180 0 -180 0 0 60 0 60 -180 0 -180 0 0 -60
0 -60 -180 0 -180 0 0 60 0 60 -185 0 -185 0 0 -60 0 -60 -180 0 -180 0 0 60
0 60 -185 0 -185 0 0 -60 0 -60 -180 0 -180 0 0 60 0 60 -185 0 -185 0 0 -60
0 -60 -180 0 -180 0 0 60 0 60 -179 0 -179 0 -4 -50 c-1 -28 -1 -55 0 -60 2
-6 73 -10 183 -10 l179 0 0 -180 0 -180 -180 0 -180 0 0 180 0 180 -185 0
-185 0 0 60 0 60 -180 0 -180 0 0 -60z m360 -240 l0 -180 -180 0 -180 0 0 180
0 180 180 0 180 0 0 -180z m1458 -2 l3 -178 -180 0 -181 0 0 180 0 180 178 -2
177 -3 3 -177z m722 56 c0 -120 1 -125 20 -119 95 30 212 21 300 -23 l55 -28
-3 148 -3 148 180 0 181 0 0 -180 0 -180 -140 0 c-77 0 -140 -3 -140 -6 0 -3
8 -18 19 -32 10 -15 53 -96 95 -179 l76 -153 45 0 45 0 0 -82 c0 -83 0 -83 58
-182 l57 -98 125 -2 125 -1 0 -188 c0 -103 1 -187 2 -187 5 0 123 164 190 265
l74 110 -131 3 -130 3 0 179 0 180 -180 0 -180 0 0 180 0 180 180 0 180 0 0
-180 0 -180 180 0 180 0 0 180 0 180 144 0 144 0 41 37 41 36 0 149 0 148 180
0 180 0 0 -110 0 -110 48 -22 c26 -12 70 -46 99 -75 l52 -53 81 0 80 0 0 -180
0 -180 -55 0 -55 0 0 -179 c0 -199 -4 -190 73 -186 l37 1 0 -178 0 -178 -32 0
c-18 0 -43 -3 -55 -6 -23 -6 -23 -8 -23 -185 l0 -179 55 0 55 0 0 -45 0 -45
185 0 185 0 0 45 0 45 -180 0 -180 0 0 180 0 180 180 0 180 0 0 -180 0 -180
180 0 180 0 1 173 c1 94 1 175 0 180 0 4 82 7 184 7 l185 0 0 185 0 185 -185
0 -185 0 0 -180 0 -180 -180 0 -180 0 0 180 0 180 -180 0 -180 0 0 180 0 180
180 0 180 0 0 180 0 180 180 0 180 0 0 -180 0 -180 185 0 185 0 0 180 0 180
180 0 180 0 0 -180 0 -180 180 0 180 0 0 -180 0 -180 -180 0 -180 0 -2 -181
-3 -181 -152 1 c-83 1 -163 -1 -177 -5 l-26 -6 0 -179 0 -179 180 0 180 0 0
-68 c0 -67 0 -68 35 -86 53 -29 121 -99 156 -160 l31 -56 69 0 69 0 0 -179 0
-180 -89 1 -88 1 -38 -42 c-21 -23 -62 -56 -91 -74 l-54 -32 0 -107 0 -108
-180 0 -180 0 -2 -182 -3 -183 -180 0 -180 0 2 108 c2 59 0 107 -4 107 -17 0
-325 -199 -336 -217 -3 -4 71 -7 164 -5 l169 3 0 -135 0 -135 83 -47 82 -48
100 0 100 -1 3 -53 c3 -51 5 -54 40 -69 20 -8 99 -46 175 -84 77 -38 141 -69
143 -69 2 0 5 62 6 138 l3 137 178 3 177 2 0 -180 0 -180 -130 0 c-71 0 -130
-3 -130 -6 0 -3 13 -22 30 -42 52 -66 73 -128 78 -229 l4 -93 74 0 74 0 0
-180 0 -180 -175 0 -175 0 0 44 0 45 -37 -16 c-28 -12 -78 -18 -185 -21 l-148
-4 0 -24 0 -24 -185 0 -185 0 0 25 0 25 -180 0 -180 0 0 -25 0 -25 -185 0
-185 0 3 23 c2 20 -3 22 -56 25 l-58 3 3 -28 c3 -26 6 -28 56 -31 l52 -3 0
-180 0 -179 -55 0 -55 0 0 -180 0 -180 55 0 55 0 0 -186 0 -186 -52 4 -53 3
-6 -140 c-4 -92 -11 -155 -22 -182 l-16 -43 74 0 75 0 0 -180 0 -180 -180 0
-180 0 0 90 0 90 -27 -7 c-16 -5 -67 -8 -114 -8 -78 0 -92 3 -157 36 l-72 35
0 -118 0 -118 -180 0 -180 0 0 180 0 180 -180 0 -180 0 0 -180 0 -180 -180 0
-180 0 -2 178 -3 177 -126 3 -127 3 -56 -58 -56 -58 0 -122 0 -123 -180 0
-180 0 0 88 0 88 -50 23 c-55 25 -138 95 -159 135 -13 24 -19 26 -83 26 l-68
0 0 33 c-2 98 -2 171 -1 244 l1 82 41 3 40 3 2 180 1 180 -45 5 -44 5 2 135
c2 74 3 154 3 177 l0 42 43 3 42 3 0 180 0 180 -42 3 c-34 3 -42 7 -45 25 -3
22 -6 22 -185 25 l-183 2 0 -25 0 -25 -180 0 -180 0 0 25 0 25 -210 0 -210 0
10 -25 10 -25 -165 0 -165 0 -2 -182 -3 -183 -180 0 -180 0 -3 362 -2 363
-180 0 -180 0 0 180 0 180 180 0 180 0 0 -180 0 -180 83 0 82 0 1 78 c0 95 21
160 74 230 22 29 40 55 40 57 0 3 -63 5 -140 5 l-140 0 0 180 0 180 -180 0
-180 0 0 180 0 180 180 0 180 0 0 180 0 180 175 0 c96 0 178 -1 183 -2 4 -2 7
-82 7 -178 l0 -175 -182 -3 -183 -2 0 -180 0 -180 181 -2 181 -3 4 -140 c3
-77 6 -140 7 -141 1 -1 81 40 177 91 l175 93 3 51 3 51 -180 0 -181 0 0 180 0
180 180 0 180 0 0 185 0 185 -180 0 -180 0 0 130 c0 72 -4 130 -9 130 -5 0
-34 22 -63 49 l-54 50 -85 1 c-46 1 -101 1 -121 1 l-38 -1 0 -180 0 -180 -180
0 -180 0 0 180 0 180 180 0 180 0 0 180 0 180 98 0 98 0 23 47 c28 57 80 121
120 148 30 19 31 22 31 98 l0 77 180 0 180 0 0 180 0 180 180 0 180 0 0 -180
0 -180 -180 0 -180 0 0 -45 0 -45 185 0 185 0 0 45 0 45 178 -2 177 -3 -1 -42
-2 -43 189 0 189 0 0 45 0 45 45 0 45 0 -2 183 -3 182 -42 3 c-33 2 -42 7 -46
25 -4 22 -4 81 1 485 l2 212 45 0 45 0 0 63 c0 82 23 167 65 245 l35 62 -95 0
-95 0 -1 115 c0 63 0 140 0 170 0 30 0 60 0 65 1 6 66 10 176 10 l175 0 0
-126z m1460 -54 l0 -180 -180 0 -180 0 0 180 0 180 180 0 180 0 0 -180z m1460
0 l0 -180 -180 0 -180 0 0 180 0 180 180 0 180 0 0 -180z m728 -2 l2 -178
-184 0 -184 0 0 173 c1 94 3 175 5 180 2 4 84 6 181 5 l177 -3 3 -177z m722 2
l0 -180 -180 0 -180 0 0 180 0 180 180 0 180 0 0 -180z m-6187 -352 c-1 -90
-2 -171 -2 -180 -1 -16 -17 -18 -181 -18 l-180 0 0 180 0 180 183 0 182 0 -2
-162z m727 -18 l0 -180 -180 0 -180 0 0 -360 0 -360 -82 -2 c-46 -1 -124 -3
-175 -3 -50 0 -95 -3 -99 -8 -4 -4 -7 -78 -6 -164 1 -86 0 -165 -4 -175 -5
-17 -19 -18 -185 -18 l-179 0 0 -179 c0 -162 -2 -179 -18 -182 -9 -2 -90 -3
-179 -1 l-163 3 0 180 0 179 180 0 180 0 0 180 0 180 185 0 185 0 0 365 0 365
180 0 180 0 0 180 0 180 180 0 180 0 0 -180z m730 0 l0 -180 -180 0 -180 0 -2
-361 -3 -362 -120 -2 c-66 -2 -146 -1 -177 2 l-58 6 0 358 0 359 180 0 180 0
0 180 0 180 180 0 180 0 0 -180z m5100 0 l0 -180 -180 0 -180 0 0 180 0 180
180 0 180 0 0 -180z m0 -720 l0 -180 -180 0 -180 0 0 180 0 180 180 0 180 0 0
-180z m-5100 -370 l0 -180 -180 0 -180 0 0 180 0 180 180 0 180 0 0 -180z
m4730 0 l0 -180 -177 2 -178 3 -3 178 -2 177 180 0 180 0 0 -180z m370 -1090
l0 -180 -180 0 -180 0 0 180 0 180 180 0 180 0 0 -180z m-370 -368 l0 -182
-177 2 -178 3 -3 170 c-1 93 -1 174 1 180 3 6 68 10 181 10 l176 0 0 -183z
m-360 -362 l0 -180 -180 0 -180 0 0 180 0 180 180 0 180 0 0 -180z m730 0 l0
-180 -180 0 -180 0 0 180 0 180 180 0 180 0 0 -180z m-5100 -1459 c0 -162 -1
-178 -17 -178 -10 1 -91 0 -180 -1 l-163 -2 0 -180 0 -180 180 0 180 0 0 -180
0 -180 -117 -1 c-65 -1 -127 -2 -138 -3 -11 -1 -39 -3 -62 -4 l-43 -2 0 -180
0 -180 180 0 180 0 0 -180 0 -180 -180 0 -180 0 0 180 0 180 -180 0 -180 0 0
180 0 180 180 0 180 0 0 185 0 185 -180 0 -180 0 0 180 0 180 180 0 180 0 0
179 0 180 33 3 c17 2 98 2 180 0 l147 -3 0 -178z m4298 181 l72 -2 0 -180 0
-180 180 0 180 0 0 -180 0 -180 -180 0 -180 0 0 -185 0 -185 180 0 180 0 0
-180 0 -180 -180 0 -180 0 0 -180 0 -180 -180 0 -180 0 0 180 0 180 -185 0
-185 0 0 -180 0 -180 -180 0 -180 0 0 180 0 180 -180 0 -180 0 0 180 0 180
180 0 180 0 0 185 0 185 -180 0 -180 0 0 180 0 180 180 0 180 0 0 180 0 180
180 0 180 0 0 -180 0 -180 185 0 185 0 0 179 0 180 33 3 c33 3 127 3 255 0z
m802 -183 l0 -180 -180 3 -180 3 0 180 0 180 180 -3 180 -3 0 -180z m-5830 1
l0 -180 -180 0 -180 0 0 -180 0 -180 180 0 180 0 0 -185 0 -184 -177 2 -178 2
-3 183 -2 182 -180 0 -180 0 0 180 0 180 180 0 180 0 0 180 0 180 180 0 180 0
0 -180z m-1090 -360 l0 -180 -180 0 -180 0 0 180 0 180 180 0 180 0 0 -180z
m368 -362 c2 -164 1 -178 -15 -179 -10 0 -92 -1 -183 -1 l-165 1 -3 167 c-1
93 0 174 3 181 3 11 43 13 182 11 l178 -3 3 -177z m6552 2 l0 -180 -97 0 c-54
-1 -135 -3 -180 -6 l-83 -6 0 186 0 186 180 0 180 0 0 -180z m-6190 -370 l0
-180 180 0 180 0 0 -180 0 -180 -180 0 -180 0 0 180 0 180 -180 0 -180 0 0
180 0 180 180 0 180 0 0 -180z m-370 -217 c0 -21 3 -102 7 -180 l6 -143 -187
0 -186 0 0 180 0 180 180 0 180 0 0 -37z"/>
<path d="M4838 6268 c-91 -24 -188 -159 -188 -262 0 -53 -1 -56 -25 -56 -21 0
-31 -13 -71 -92 -26 -51 -69 -132 -95 -179 -27 -48 -49 -88 -49 -90 0 -2 54
-3 120 -1 l120 3 0 -180 c0 -181 0 -181 -22 -181 -13 0 -93 -1 -178 -1 l-155
-1 -5 83 -5 84 -56 -85 -55 -85 58 -3 58 -3 0 -179 0 -180 -194 0 -195 0 -133
-156 c-73 -87 -143 -170 -156 -185 l-23 -29 170 0 171 0 0 -180 0 -180 -180 0
-180 0 0 170 0 170 -157 -161 c-87 -89 -159 -165 -161 -170 -2 -5 63 -9 152
-9 l156 0 0 -180 0 -180 -180 0 -180 0 -2 160 -3 160 -94 -94 -93 -94 93 -72
c52 -39 149 -120 217 -178 68 -59 139 -120 158 -136 l34 -30 30 29 c30 29 30
29 30 141 l0 112 110 -1 111 0 69 76 70 75 0 106 0 106 93 0 92 0 90 112 89
112 -2 68 c-3 75 -7 72 69 68 36 -1 37 0 154 172 65 95 125 182 132 193 9 14
13 66 13 192 l0 173 103 0 103 0 79 147 c63 119 78 155 76 185 l-2 38 41 0 40
0 0 180 0 180 -41 0 -41 0 4 139 c3 121 5 138 18 129 8 -6 3 1 -13 15 -45 43
-113 55 -189 35z m182 -498 l0 -180 -180 0 -180 0 0 180 0 180 180 0 180 0 0
-180z"/>
<path d="M2802 6193 c-40 -57 -54 -97 -59 -169 l-6 -74 47 0 46 0 1 -72 c1
-40 3 -104 4 -143 2 -38 0 -87 -3 -108 -5 -38 -6 -39 -42 -35 l-37 3 41 -47
41 -48 3 45 3 45 177 -2 177 -3 0 -180 0 -180 -98 0 c-53 0 -97 -2 -97 -4 0
-2 44 -76 98 -165 l97 -161 3 163 2 162 180 0 180 0 0 -180 0 -180 -170 -2
-171 -3 76 -125 c42 -69 82 -131 89 -138 13 -13 20 -6 217 218 109 125 219
256 219 264 0 3 -23 40 -52 81 l-52 75 -73 0 -73 0 0 112 0 112 -40 68 -41 68
-144 0 -145 0 0 181 0 181 45 -4 c25 -2 45 -2 45 0 0 1 -19 39 -42 85 l-43 82
-3 -82 -3 -83 -179 0 -180 0 0 135 c0 77 -4 135 -9 135 -5 0 -18 -12 -29 -27z
m775 -1390 c-3 -10 -5 -2 -5 17 0 19 2 27 5 18 2 -10 2 -26 0 -35z"/>
<path d="M4290 5855 c0 -52 2 -95 5 -95 5 0 95 175 95 185 0 3 -22 5 -50 5
l-50 0 0 -95z"/>
<path d="M5750 5770 l0 -180 180 0 180 0 0 180 0 180 -180 0 -180 0 0 -180z"/>
<path d="M6480 5770 l0 -180 180 0 180 0 0 180 0 180 -180 0 -180 0 0 -180z"/>
<path d="M5086 5273 c-6 -14 -5 -15 5 -6 7 7 10 15 7 18 -3 3 -9 -2 -12 -12z"/>
<path d="M5066 5233 c-6 -14 -5 -15 5 -6 7 7 10 15 7 18 -3 3 -9 -2 -12 -12z"/>
<path d="M2740 5045 l0 -185 45 0 45 0 0 -180 0 -180 -45 0 -45 0 0 -185 0
-185 50 0 50 0 0 180 0 180 180 0 180 0 0 -57 0 -58 32 32 c29 30 30 33 18 62
-8 19 -20 31 -31 31 -14 0 -19 7 -19 28 0 18 -33 85 -90 180 l-91 152 -89 0
-90 0 0 151 c0 136 -2 155 -21 185 -16 26 -27 34 -50 34 l-29 0 0 -185z"/>
<path d="M4936 5010 c-47 -83 -86 -152 -86 -153 0 -1 38 -1 85 1 l85 3 0 -180
0 -181 -179 0 -180 0 -3 28 -3 27 -23 -32 c-23 -33 -23 -33 -3 -33 19 0 21 -6
22 -77 0 -43 2 -86 4 -97 2 -10 43 -56 92 -102 l88 -83 92 -1 92 0 3 -60 3
-60 38 25 c31 21 37 32 37 60 0 34 -1 35 -40 35 l-40 0 0 180 0 180 40 0 40 0
0 185 0 185 -41 0 -40 0 3 150 c2 83 3 150 2 150 -1 0 -40 -68 -88 -150z"/>
<path d="M6110 4815 l0 -45 185 0 185 0 0 45 0 45 -185 0 -185 0 0 -45z"/>
<path d="M1380 4540 l0 -40 -161 0 c-125 0 -159 3 -153 13 5 7 1 7 -10 -2 -39
-33 -44 -62 -36 -248 0 -21 71 -93 111 -114 31 -15 59 -19 144 -19 l105 0 0
-53 0 -54 185 -106 185 -105 -2 156 -3 157 -182 3 -183 2 0 180 0 180 180 0
180 0 0 -180 0 -180 185 0 185 0 0 88 0 87 -107 59 c-60 33 -133 75 -163 94
-30 19 -61 35 -70 37 -8 1 -15 6 -15 11 0 5 -6 24 -14 42 l-13 32 -174 0 -174
0 0 -40z"/>
<path d="M1978 4573 c7 -3 16 -2 19 1 4 3 -2 6 -13 5 -11 0 -14 -3 -6 -6z"/>
<path d="M2107 4543 c-2 -21 -2 -41 0 -45 2 -5 85 -8 184 -8 l179 0 0 -105 0
-104 44 -31 c25 -16 47 -30 49 -30 3 0 6 60 6 134 l2 135 -48 3 -48 3 2 43 2
42 -184 0 -183 0 -5 -37z"/>
<path d="M5380 4486 c0 -103 -5 -126 -26 -126 -8 0 -14 -4 -14 -10 0 -5 -7
-10 -15 -10 -17 0 -20 17 -4 22 14 5 0 38 -17 38 -8 0 -14 8 -15 18 0 14 -2
14 -9 -3 -19 -44 -5 -145 20 -145 5 0 10 9 10 19 0 25 18 37 33 22 8 -8 8 -11
-1 -11 -7 0 -12 -12 -12 -26 0 -14 4 -23 10 -19 16 10 12 -7 -7 -28 -16 -17
-14 -17 20 3 l37 22 0 119 0 119 180 0 180 0 0 45 0 45 -185 0 -185 0 0 -94z"/>
<path d="M6142 4540 c-22 -26 -74 -62 -165 -111 -72 -40 -154 -87 -181 -104
l-48 -31 -2 -79 -1 -80 -124 -2 -124 -1 -56 -40 -56 -39 -3 -141 -3 -141 -65
-3 -66 -3 65 -52 c35 -29 67 -53 71 -53 3 0 6 24 6 53 l0 52 178 0 177 0 5
-87 5 -86 138 86 138 87 -140 3 -141 3 0 179 0 180 180 0 180 0 0 -155 c0 -85
3 -155 7 -155 3 0 54 26 112 58 58 33 139 76 179 98 l72 38 0 58 0 58 129 0
c129 0 129 0 177 33 l49 32 5 143 c3 84 1 147 -4 153 -6 5 -88 9 -183 9 l-173
0 0 40 0 40 -152 0 -153 0 -33 -40z m338 -230 l0 -180 -182 2 -183 3 0 177 0
178 183 0 182 0 0 -180z"/>
<path d="M2356 4143 c-4 -4 -59 -8 -122 -9 -63 -1 -117 -3 -119 -6 -2 -2 -5
-84 -6 -181 l-2 -177 -145 0 -144 0 143 -95 144 -95 3 96 3 96 175 -5 175 -6
10 25 c5 14 9 85 9 158 l0 133 -37 25 c-57 38 -80 48 -87 41z"/>
<path d="M4569 4139 c-7 -5 -65 -9 -127 -9 -155 0 -151 5 -152 -202 l0 -157
-97 -3 -98 -3 95 -98 95 -98 5 98 5 98 178 0 177 0 0 -180 0 -180 -88 -3 c-48
-2 -87 -4 -88 -5 -1 -1 40 -38 90 -82 l91 -79 3 82 3 82 179 0 c165 0 180 -1
180 -17 1 -10 1 -113 2 -230 l0 -211 147 -104 c181 -130 208 -148 215 -148 3
0 6 79 6 175 l0 175 178 -2 177 -3 0 -178 0 -177 -167 -3 c-93 -1 -168 -3
-168 -5 0 -5 165 -110 253 -161 l87 -50 0 104 0 105 180 0 180 0 0 -179 0
-180 -30 -3 -29 -3 33 -22 33 -21 -5 24 -4 24 183 -2 184 -3 3 -57 3 -58 120
0 c98 0 127 3 157 19 72 37 112 104 112 186 0 38 -21 115 -32 115 -2 0 -2 -45
0 -100 l3 -100 -180 0 -181 0 0 180 0 180 68 0 67 1 -55 29 c-70 37 -80 37
-80 -1 l0 -30 -72 5 c-40 2 -123 5 -185 5 l-112 1 3 126 2 126 -83 54 -84 54
-100 0 -100 0 2 65 2 65 -106 78 c-59 42 -143 105 -187 140 -76 60 -80 61 -80
37 l0 -25 -175 0 c-160 0 -175 2 -175 18 -1 9 -3 70 -6 135 -4 68 -2 129 4
146 9 25 7 32 -12 50 -21 20 -34 21 -189 21 l-167 0 0 151 c0 83 -4 159 -10
169 -16 31 -64 60 -81 49z"/>
<path d="M2895 4131 l-60 -6 -3 -39 c-6 -66 12 -67 76 -3 31 31 55 56 52 55
-3 -1 -32 -4 -65 -7z"/>
<path d="M1380 3807 l0 -35 68 -4 c37 -2 68 -3 70 -2 2 1 -109 63 -130 72 -5
2 -8 -12 -8 -31z"/>
<path d="M2836 3801 l7 -31 -187 0 -186 0 0 -185 0 -185 180 0 180 0 1 -127
c1 -71 3 -152 5 -182 l3 -53 -30 4 -29 5 22 -24 c26 -28 38 -29 38 -3 0 19 7
20 180 20 l180 0 0 -185 0 -185 179 0 180 0 3 -37 3 -37 32 40 32 40 -30 -4
-29 -4 0 186 0 186 82 0 83 0 -80 80 -80 81 -3 -48 c-1 -26 -4 -63 -7 -80 l-6
-33 -179 0 -180 0 0 180 0 180 78 0 77 1 -75 69 -75 69 -3 -70 -3 -70 -180 3
-179 3 2 180 3 180 33 0 c17 0 32 1 32 2 0 1 -18 16 -40 33 l-40 32 6 -31z"/>
<path d="M6425 3797 c-51 -26 -56 -32 -36 -35 13 -2 38 -1 56 2 27 5 34 12 37
36 3 17 4 30 4 30 -1 -1 -28 -15 -61 -33z"/>
<path d="M3929 3673 c-1 -5 -2 -66 -3 -138 l-1 -130 -132 0 c-195 0 -195 5
-13 -185 l149 -155 1 168 0 167 141 0 141 0 -132 140 c-124 130 -148 152 -151
133z"/>
<path d="M5155 3620 c10 -11 20 -20 23 -20 3 0 -3 9 -13 20 -10 11 -20 20 -23
20 -3 0 3 -9 13 -20z"/>
<path d="M1740 3515 l0 -115 -180 0 -180 0 0 -180 0 -180 58 -1 c31 -1 68 -2
82 -2 15 -1 68 25 128 63 l102 63 0 119 0 119 170 -3 c157 -3 168 -2 152 13
-20 19 -318 219 -326 219 -3 0 -6 -52 -6 -115z"/>
<path d="M5190 3596 c0 -2 8 -10 18 -17 15 -13 16 -12 3 4 -13 16 -21 21 -21
13z"/>
<path d="M2409 3351 c35 -28 64 -51 65 -51 0 0 1 21 1 48 l-1 47 -64 3 -64 3
63 -50z"/>
<path d="M2171 3219 l-73 -51 7 -64 7 -64 -107 0 -107 0 -79 -47 -79 -48 0
-131 0 -131 -172 -7 c-94 -4 -175 -3 -179 1 -4 4 -9 20 -11 34 l-3 27 -55 -32
-55 -31 58 -3 57 -3 0 -179 0 -180 -181 0 -180 0 3 100 c2 55 2 100 1 100 -13
0 -33 -70 -33 -113 0 -65 18 -113 57 -148 54 -51 83 -59 212 -59 l120 0 3 58
3 57 178 3 177 2 0 -39 0 -40 50 37 50 37 -45 3 -45 3 0 180 0 179 180 0 180
0 0 185 0 185 180 0 180 0 0 -175 c0 -96 3 -175 6 -175 6 0 215 133 252 161
l22 17 -99 86 c-90 78 -102 86 -140 86 -40 0 -41 1 -41 34 0 32 -8 41 -102
115 -57 45 -108 81 -114 81 -6 0 -44 -23 -83 -51z"/>
<path d="M4332 3217 c-41 -42 -42 -44 -42 -110 l0 -67 -69 0 c-68 0 -70 -1
-103 -39 -18 -21 -68 -76 -110 -123 -75 -82 -77 -85 -79 -141 l-2 -57 -47 0
-47 0 -136 -172 c-76 -95 -137 -178 -137 -185 0 -10 40 -13 186 -13 l187 0 -5
-147 c-2 -82 -2 -181 1 -222 l6 -74 50 64 c127 164 291 352 517 591 76 80 138
149 138 153 0 4 -78 6 -172 4 l-173 -4 -3 183 -2 183 169 -3 c125 -2 167 0
158 8 -7 6 -52 46 -102 89 -49 43 -101 89 -115 102 l-26 23 -42 -43z m-42
-727 l0 -180 -180 0 -180 0 0 180 0 180 180 0 180 0 0 -180z"/>
<path d="M4659 2953 c-1 -32 -3 -74 -4 -93 -2 -19 -1 -66 2 -104 l5 -68 89 88
c64 64 86 91 78 100 -5 7 -46 40 -90 74 l-79 61 -1 -58z"/>
<path d="M5020 2706 c0 -22 -6 -26 -44 -31 -24 -4 -53 -4 -63 -1 -15 5 -47
-22 -141 -117 l-122 -124 0 -61 0 -62 -46 0 c-33 0 -43 3 -38 13 5 9 4 9 -5 1
-10 -9 0 -32 44 -103 31 -50 57 -91 58 -91 1 0 1 40 -1 90 l-3 90 180 0 181 0
0 -180 0 -180 -120 0 c-66 0 -120 -2 -120 -5 0 -16 171 -274 277 -419 l43 -58
0 55 0 55 -40 7 -40 7 2 176 3 177 38 -3 37 -4 0 186 0 186 -39 0 -38 0 -2
179 -1 180 37 3 37 3 -37 28 -37 28 0 -25z"/>
<path d="M2795 2695 l-30 -25 33 0 32 0 1 -57 c0 -32 0 -83 1 -113 0 -30 0
-85 -1 -122 l-1 -68 -45 0 -45 0 0 -365 0 -365 50 0 50 0 0 185 0 185 124 0
125 0 54 83 c29 45 84 124 120 175 37 50 67 94 67 97 0 3 -30 5 -66 5 l-65 0
2 67 2 67 -124 118 -124 118 -57 0 c-51 0 -58 2 -58 20 0 26 -8 25 -45 -5z"/>
<path d="M2128 2673 c-14 -4 -17 -21 -20 -108 l-3 -103 30 16 c38 19 315 192
315 197 0 4 -303 3 -322 -2z"/>
<path d="M2400 2448 c-36 -23 -101 -63 -144 -90 l-79 -48 146 0 147 0 0 -60 0
-60 48 0 47 0 -3 60 -4 60 -45 0 -44 0 3 90 c2 50 1 90 -2 90 -3 0 -34 -19
-70 -42z"/>
<path d="M5380 2399 l0 -89 -55 0 -55 0 0 -60 0 -60 58 0 59 0 0 38 c0 90 -14
81 141 84 l138 3 -143 87 -143 87 0 -90z"/>
<path d="M2053 2234 c-35 -19 -63 -37 -63 -40 0 -2 27 -4 59 -4 l59 0 4 40 c2
22 3 40 3 40 0 0 -28 -16 -62 -36z"/>
<path d="M5748 2230 l4 -40 72 0 71 0 -70 40 c-38 21 -72 39 -75 40 -3 0 -4
-18 -2 -40z"/>
<path d="M4356 2103 c-54 -65 -65 -84 -66 -115 0 -35 -2 -38 -30 -38 -26 0
-41 -15 -125 -122 -52 -68 -95 -129 -95 -137 0 -7 16 -35 36 -62 l36 -49 89 0
89 0 0 -142 c1 -132 2 -146 24 -181 l24 -39 156 1 156 2 0 -185 0 -185 -55 4
-54 4 35 -76 c19 -42 44 -92 57 -112 l22 -36 3 108 3 107 180 0 180 0 -3 -165
-3 -164 27 26 c41 39 58 102 58 215 l0 98 -40 0 -40 0 0 181 0 181 25 -4 24
-5 -22 27 -22 27 -3 -24 -3 -23 -180 0 -179 0 0 180 0 179 75 3 74 3 -70 110
c-39 61 -75 114 -80 119 -4 5 -8 -43 -7 -110 l1 -119 -109 -3 c-60 -2 -142 0
-181 3 l-73 7 0 174 0 173 144 3 144 3 -69 110 c-39 61 -74 114 -78 118 -5 5
-38 -26 -75 -70z"/>
<path d="M1030 2030 c8 -5 20 -10 25 -10 6 0 3 5 -5 10 -8 5 -19 10 -25 10 -5
0 -3 -5 5 -10z"/>
<path d="M1155 1990 c17 -4 22 -8 13 -9 -10 0 -18 -5 -18 -10 0 -4 11 -6 25
-3 14 2 25 8 25 13 0 4 12 10 28 12 15 2 -2 4 -38 4 -49 1 -58 -1 -35 -7z"/>
<path d="M1278 1993 c6 -2 18 -2 25 0 6 3 1 5 -13 5 -14 0 -19 -2 -12 -5z"/>
<path d="M2546 1992 c-2 -4 -1 -14 5 -22 7 -12 9 -10 9 8 0 23 -5 28 -14 14z"/>
<path d="M3240 1885 l-42 -65 1 -115 2 -115 -61 -1 c-33 -1 -64 -2 -70 -3 -5
0 -38 -51 -73 -112 -82 -145 -144 -231 -207 -287 l-50 -45 0 -146 0 -146 45 0
45 0 0 -164 0 -164 40 -16 c86 -34 175 -16 250 51 73 66 83 89 81 200 l-2 93
45 0 44 0 71 133 c39 72 85 156 102 185 l31 52 -146 0 -146 0 0 180 0 180 180
0 179 0 3 -119 3 -119 65 95 c36 53 73 108 82 122 l17 26 -80 -3 -79 -4 -1 84
c0 46 0 129 1 186 l2 102 -145 0 -145 0 -42 -65z m-40 -845 l0 -180 -57 -2
c-32 0 -113 -2 -180 -2 l-123 -1 0 183 0 182 180 0 180 0 0 -180z"/>
<path d="M2851 1571 c-7 -5 -12 -14 -10 -20 2 -6 10 -2 17 9 14 22 13 23 -7
11z"/>
<path d="M3832 1413 c-48 -71 -98 -144 -110 -163 l-21 -35 115 3 114 3 0 -180
0 -181 -122 -1 c-68 -1 -150 -2 -183 -3 l-60 -1 3 70 2 70 -19 -32 c-11 -17
-29 -50 -41 -72 l-20 -41 35 0 35 0 2 -177 3 -178 183 -3 182 -2 0 180 0 180
180 0 180 0 0 -180 0 -180 123 0 123 0 -90 185 c-90 185 -90 185 -123 185
l-33 0 0 63 c0 60 -3 69 -68 178 l-68 114 -112 3 -113 3 3 159 c2 88 0 160 -4
160 -4 0 -47 -57 -96 -127z"/>
<path d="M5760 1582 c-6 -2 -10 -74 -10 -183 l0 -179 180 0 180 0 -2 -182 -3
-183 -160 -1 c-88 0 -168 -1 -177 -2 -16 -2 -18 -18 -18 -182 l0 -180 180 0
180 0 0 180 0 180 185 0 185 0 0 185 0 185 180 0 180 0 0 180 0 180 -180 0
-180 0 0 -180 0 -180 -186 0 -185 0 1 68 c1 37 1 117 1 179 l-1 112 -170 3
c-94 2 -175 2 -180 0z"/>
<path d="M6487 854 c-4 -4 -7 -88 -7 -186 l0 -178 180 0 180 0 0 180 0 180
-37 1 c-21 0 -99 3 -173 5 -75 3 -139 2 -143 -2z"/>
<path d="M251 2204 c0 -11 3 -14 6 -6 3 7 2 16 -1 19 -3 4 -6 -2 -5 -13z"/>
<path d="M255 2081 c-3 -5 -1 -12 5 -16 5 -3 10 1 10 9 0 18 -6 21 -15 7z"/>
<path d="M259 2038 c0 -7 -2 -23 -5 -36 -2 -13 0 -31 6 -40 7 -13 9 -3 10 36
0 28 -2 52 -5 52 -3 0 -5 -6 -6 -12z"/>
<path d="M200 2030 c0 -5 5 -10 10 -10 6 0 10 5 10 10 0 6 -4 10 -10 10 -5 0
-10 -4 -10 -10z"/>
<path d="M126 2015 c-3 -9 0 -15 9 -15 16 0 20 16 6 24 -5 3 -11 -1 -15 -9z"/>
<path d="M214 1988 c3 -12 5 -27 5 -31 1 -5 5 -6 9 -3 13 8 7 49 -6 54 -8 2
-11 -5 -8 -20z"/>
<path d="M95 1969 c-4 -6 -5 -12 -2 -15 2 -3 7 2 10 11 7 17 1 20 -8 4z"/>
<path d="M170 1962 c0 -5 7 -9 15 -9 8 0 12 4 9 9 -3 4 -9 8 -15 8 -5 0 -9 -4
-9 -8z"/>
</g>
</svg>
